<svg width="167" height="50" viewBox="0 0 167 50" fill="none" xmlns="http://www.w3.org/2000/svg">
<rect width="167" height="50" rx="10" fill="white"/>
<path d="M38.2266 22.7409C38.2413 21.6064 38.5444 20.494 39.1076 19.5072C39.6708 18.5204 40.4759 17.6914 41.4479 17.0971C40.8304 16.2202 40.0158 15.4985 39.0687 14.9894C38.1217 14.4803 37.0683 14.1977 35.9923 14.1643C33.6969 13.9247 31.4717 15.5301 30.3019 15.5301C29.1096 15.5301 27.3087 14.1881 25.3694 14.2277C24.115 14.268 22.8926 14.6308 21.8211 15.2806C20.7496 15.9304 19.8656 16.8451 19.2553 17.9356C16.6118 22.487 18.5836 29.1761 21.116 32.8551C22.383 34.6566 23.8637 36.669 25.8013 36.5976C27.6973 36.5194 28.4054 35.3954 30.694 35.3954C32.9614 35.3954 33.6257 36.5976 35.6026 36.5522C37.6371 36.5194 38.9189 34.7427 40.1415 32.9242C41.0518 31.6405 41.7523 30.2218 42.217 28.7206C41.035 28.2235 40.0263 27.3913 39.3167 26.328C38.6071 25.2646 38.228 24.0171 38.2266 22.7409Z" fill="black"/>
<path d="M34.4929 11.7447C35.6022 10.4205 36.1487 8.71844 36.0164 7C34.3217 7.177 32.7562 7.98245 31.6319 9.25586C31.0822 9.87795 30.6612 10.6017 30.393 11.3857C30.1247 12.1696 30.0145 12.9985 30.0686 13.8249C30.9162 13.8336 31.7548 13.6509 32.5212 13.2905C33.2876 12.9302 33.9617 12.4017 34.4929 11.7447Z" fill="black"/>
<path d="M59.686 16.051C59.9647 16.095 60.2177 16.2087 60.445 16.392C60.6797 16.5753 60.863 16.8027 60.995 17.074C61.1343 17.3453 61.204 17.635 61.204 17.943C61.204 18.3317 61.105 18.6837 60.907 18.999C60.709 19.307 60.4193 19.5527 60.038 19.736C59.664 19.912 59.2203 20 58.707 20H55.847V12.333H58.597C59.1177 12.333 59.5613 12.421 59.928 12.597C60.2947 12.7657 60.5697 12.9967 60.753 13.29C60.9363 13.5833 61.028 13.9133 61.028 14.28C61.028 14.7347 60.9033 15.1123 60.654 15.413C60.412 15.7063 60.0893 15.919 59.686 16.051ZM56.848 15.644H58.531C59.0003 15.644 59.3633 15.534 59.62 15.314C59.8767 15.094 60.005 14.7897 60.005 14.401C60.005 14.0123 59.8767 13.708 59.62 13.488C59.3633 13.268 58.993 13.158 58.509 13.158H56.848V15.644ZM58.619 19.175C59.1177 19.175 59.5063 19.0577 59.785 18.823C60.0637 18.5883 60.203 18.262 60.203 17.844C60.203 17.4187 60.0563 17.085 59.763 16.843C59.4697 16.5937 59.0773 16.469 58.586 16.469H56.848V19.175H58.619ZM62.2191 16.964C62.2191 16.348 62.3438 15.809 62.5931 15.347C62.8424 14.8777 63.1834 14.5147 63.6161 14.258C64.0561 14.0013 64.5438 13.873 65.0791 13.873C65.6071 13.873 66.0654 13.9867 66.4541 14.214C66.8428 14.4413 67.1324 14.7273 67.3231 15.072V13.972H68.3351V20H67.3231V18.878C67.1251 19.23 66.8281 19.5233 66.4321 19.758C66.0434 19.9853 65.5888 20.099 65.0681 20.099C64.5328 20.099 64.0488 19.967 63.6161 19.703C63.1834 19.439 62.8424 19.0687 62.5931 18.592C62.3438 18.1153 62.2191 17.5727 62.2191 16.964ZM67.3231 16.975C67.3231 16.5203 67.2314 16.1243 67.0481 15.787C66.8648 15.4497 66.6154 15.193 66.3001 15.017C65.9921 14.8337 65.6511 14.742 65.2771 14.742C64.9031 14.742 64.5621 14.83 64.2541 15.006C63.9461 15.182 63.7004 15.4387 63.5171 15.776C63.3338 16.1133 63.2421 16.5093 63.2421 16.964C63.2421 17.426 63.3338 17.8293 63.5171 18.174C63.7004 18.5113 63.9461 18.7717 64.2541 18.955C64.5621 19.131 64.9031 19.219 65.2771 19.219C65.6511 19.219 65.9921 19.131 66.3001 18.955C66.6154 18.7717 66.8648 18.5113 67.0481 18.174C67.2314 17.8293 67.3231 17.4297 67.3231 16.975ZM70.5437 12.993C70.353 12.993 70.1917 12.927 70.0597 12.795C69.9277 12.663 69.8617 12.5017 69.8617 12.311C69.8617 12.1203 69.9277 11.959 70.0597 11.827C70.1917 11.695 70.353 11.629 70.5437 11.629C70.727 11.629 70.881 11.695 71.0057 11.827C71.1377 11.959 71.2037 12.1203 71.2037 12.311C71.2037 12.5017 71.1377 12.663 71.0057 12.795C70.881 12.927 70.727 12.993 70.5437 12.993ZM71.0277 13.972V20H70.0267V13.972H71.0277ZM75.8797 20L74.4497 17.756L73.0747 20H72.0297L73.9767 17.008L72.0297 13.972H73.1627L74.5927 16.205L75.9567 13.972H77.0017L75.0657 16.953L77.0127 20H75.8797ZM77.6234 16.964C77.6234 16.348 77.7481 15.809 77.9974 15.347C78.2467 14.8777 78.5877 14.5147 79.0204 14.258C79.4604 14.0013 79.9481 13.873 80.4834 13.873C81.0114 13.873 81.4697 13.9867 81.8584 14.214C82.2471 14.4413 82.5367 14.7273 82.7274 15.072V13.972H83.7394V20H82.7274V18.878C82.5294 19.23 82.2324 19.5233 81.8364 19.758C81.4477 19.9853 80.9931 20.099 80.4724 20.099C79.9371 20.099 79.4531 19.967 79.0204 19.703C78.5877 19.439 78.2467 19.0687 77.9974 18.592C77.7481 18.1153 77.6234 17.5727 77.6234 16.964ZM82.7274 16.975C82.7274 16.5203 82.6357 16.1243 82.4524 15.787C82.2691 15.4497 82.0197 15.193 81.7044 15.017C81.3964 14.8337 81.0554 14.742 80.6814 14.742C80.3074 14.742 79.9664 14.83 79.6584 15.006C79.3504 15.182 79.1047 15.4387 78.9214 15.776C78.7381 16.1133 78.6464 16.5093 78.6464 16.964C78.6464 17.426 78.7381 17.8293 78.9214 18.174C79.1047 18.5113 79.3504 18.7717 79.6584 18.955C79.9664 19.131 80.3074 19.219 80.6814 19.219C81.0554 19.219 81.3964 19.131 81.7044 18.955C82.0197 18.7717 82.2691 18.5113 82.4524 18.174C82.6357 17.8293 82.7274 17.4297 82.7274 16.975ZM86.432 14.951C86.608 14.6063 86.8573 14.3387 87.18 14.148C87.51 13.9573 87.9097 13.862 88.379 13.862V14.896H88.115C86.993 14.896 86.432 15.5047 86.432 16.722V20H85.431V13.972H86.432V14.951ZM95.4041 13.862C96.1375 13.862 96.7315 14.0857 97.1861 14.533C97.6408 14.973 97.8681 15.611 97.8681 16.447V20H96.8781V16.59C96.8781 15.9887 96.7278 15.5303 96.4271 15.215C96.1265 14.8923 95.7158 14.731 95.1951 14.731C94.6671 14.731 94.2455 14.896 93.9301 15.226C93.6221 15.556 93.4681 16.0363 93.4681 16.667V20H92.4671V13.972H93.4681V14.83C93.6661 14.522 93.9338 14.2837 94.2711 14.115C94.6158 13.9463 94.9935 13.862 95.4041 13.862ZM99.1293 16.964C99.1293 16.348 99.2539 15.809 99.5033 15.347C99.7526 14.8777 100.094 14.5147 100.526 14.258C100.966 14.0013 101.454 13.873 101.989 13.873C102.517 13.873 102.976 13.9867 103.364 14.214C103.753 14.4413 104.043 14.7273 104.233 15.072V13.972H105.245V20H104.233V18.878C104.035 19.23 103.738 19.5233 103.342 19.758C102.954 19.9853 102.499 20.099 101.978 20.099C101.443 20.099 100.959 19.967 100.526 19.703C100.094 19.439 99.7526 19.0687 99.5033 18.592C99.2539 18.1153 99.1293 17.5727 99.1293 16.964ZM104.233 16.975C104.233 16.5203 104.142 16.1243 103.958 15.787C103.775 15.4497 103.526 15.193 103.21 15.017C102.902 14.8337 102.561 14.742 102.187 14.742C101.813 14.742 101.472 14.83 101.164 15.006C100.856 15.182 100.611 15.4387 100.427 15.776C100.244 16.1133 100.152 16.5093 100.152 16.964C100.152 17.426 100.244 17.8293 100.427 18.174C100.611 18.5113 100.856 18.7717 101.164 18.955C101.472 19.131 101.813 19.219 102.187 19.219C102.561 19.219 102.902 19.131 103.21 18.955C103.526 18.7717 103.775 18.5113 103.958 18.174C104.142 17.8293 104.233 17.4297 104.233 16.975Z" fill="black"/>
<path d="M62.8395 33.7565H58.1274L56.9958 37H55L59.4632 25H61.5368L66 37H63.9701L62.8395 33.7565ZM58.6155 32.2598H62.3506L60.5093 26.9959H60.4577L58.6155 32.2598Z" fill="black"/>
<path d="M75 32.5685C75 35.3483 73.5874 37.1343 71.4558 37.1343C70.9158 37.1641 70.3787 37.033 69.9061 36.7562C69.4336 36.4795 69.0445 36.0681 68.7836 35.5692H68.7433V40H67V28.0952H68.6874V29.5831H68.7194C68.9924 29.0866 69.388 28.6774 69.8642 28.3989C70.3403 28.1205 70.8793 27.9832 71.4237 28.0016C73.5792 28.0017 75 29.7963 75 32.5685ZM73.2082 32.5685C73.2082 30.7574 72.3196 29.5667 70.9638 29.5667C69.6319 29.5667 68.736 30.7825 68.736 32.5685C68.736 34.3709 69.6319 35.5779 70.9638 35.5779C72.3196 35.5779 73.2082 34.396 73.2082 32.5685Z" fill="black"/>
<path d="M85 32.5685C85 35.3483 83.4104 37.1343 81.0124 37.1343C80.405 37.1641 79.8009 37.033 79.2692 36.7562C78.7376 36.4795 78.3 36.0681 78.0064 35.5692H77.9611V40H76V28.0952H77.8982V29.5831H77.9343C78.2413 29.0866 78.6863 28.6774 79.222 28.3989C79.7577 28.1205 80.364 27.9832 80.9763 28.0016C83.4012 28.0017 85 29.7963 85 32.5685ZM82.9838 32.5685C82.9838 30.7574 81.9842 29.5667 80.4591 29.5667C78.9607 29.5667 77.9529 30.7825 77.9529 32.5685C77.9529 34.3709 78.9607 35.5779 80.4591 35.5779C81.9842 35.5779 82.9838 34.396 82.9838 32.5685Z" fill="black"/>
<path d="M90.7973 33.5708C90.9274 34.7225 92.0576 35.4786 93.602 35.4786C95.0818 35.4786 96.1465 34.7224 96.1465 33.684C96.1465 32.7827 95.5044 32.243 93.9839 31.8731L92.4635 31.5105C90.3092 30.9955 89.3091 29.9982 89.3091 28.3799C89.3091 26.3763 91.0731 25 93.5771 25C96.057 25 97.7565 26.3763 97.8137 28.3799H96.0413C95.9352 27.221 94.9674 26.5215 93.5531 26.5215C92.1387 26.5215 91.1709 27.2292 91.1709 28.2594C91.1709 29.0804 91.7891 29.5635 93.3012 29.9333L94.5938 30.2475C97.0008 30.8109 98 31.768 98 33.4667C98 35.6393 96.2526 37 93.4718 37C90.8701 37 89.1135 35.6712 89 33.5708L90.7973 33.5708Z" fill="black"/>
<path d="M102.245 26V28.0952H104V29.5343H102.245V34.4151C102.245 35.1733 102.596 35.5266 103.368 35.5266C103.576 35.5231 103.784 35.5091 103.991 35.4846V36.9151C103.644 36.9773 103.292 37.0054 102.939 36.9991C101.07 36.9991 100.342 36.3259 100.342 34.6089V29.5343H99V28.0952H100.342V26H102.245Z" fill="black"/>
<path d="M105 32.5C105 29.7365 106.563 28 109 28C111.445 28 113 29.7365 113 32.5C113 35.2711 111.453 37 109 37C106.547 37 105 35.271 105 32.5ZM111.236 32.5C111.236 30.6043 110.402 29.4855 109 29.4855C107.597 29.4855 106.763 30.6128 106.763 32.5C106.763 34.4033 107.597 35.5136 109 35.5136C110.402 35.5136 111.236 34.4033 111.236 32.5Z" fill="black"/>
<path d="M115 28.0947H116.531V29.6105H116.568C116.672 29.1371 116.916 28.7187 117.258 28.4257C117.601 28.1327 118.022 27.9829 118.45 28.0015C118.635 28.0008 118.819 28.0237 119 28.0698V29.7795C118.766 29.6983 118.523 29.661 118.279 29.6691C118.045 29.6583 117.813 29.7051 117.597 29.8063C117.381 29.9075 117.187 30.0607 117.028 30.2553C116.869 30.45 116.749 30.6815 116.676 30.934C116.603 31.1864 116.579 31.4539 116.606 31.7179V37H115L115 28.0947Z" fill="black"/>
<path d="M126.9 34.3114C126.658 35.9058 125.11 37 123.129 37C120.581 37 119 35.2881 119 32.5417C119 29.7867 120.59 28 123.053 28C125.476 28 127 29.6693 127 32.3323V32.95H120.815V33.0589C120.786 33.3822 120.826 33.7078 120.933 34.0142C121.04 34.3206 121.21 34.6008 121.433 34.8361C121.656 35.0714 121.926 35.2564 122.225 35.3789C122.525 35.5015 122.847 35.5587 123.171 35.5467C123.595 35.5867 124.022 35.488 124.386 35.2654C124.75 35.0428 125.033 34.7082 125.193 34.3114L126.9 34.3114ZM120.823 31.69H125.201C125.218 31.3994 125.174 31.1085 125.072 30.8357C124.971 30.5629 124.815 30.314 124.613 30.1047C124.411 29.8954 124.169 29.7302 123.9 29.6194C123.632 29.5086 123.344 29.4546 123.053 29.4608C122.761 29.4591 122.47 29.5155 122.2 29.6268C121.929 29.7381 121.682 29.9021 121.475 30.1094C121.268 30.3166 121.103 30.563 120.991 30.8343C120.88 31.1056 120.822 31.3964 120.823 31.69Z" fill="black"/>
</svg>
