<svg width="167" height="50" viewBox="0 0 167 50" fill="none" xmlns="http://www.w3.org/2000/svg">
<rect width="167" height="50" rx="10" fill="white"/>
<path fill-rule="evenodd" clip-rule="evenodd" d="M65.4239 30.256V36H63.8719L63.7279 34.56C63.2319 35.392 62.0639 36.24 60.2559 36.24C57.2959 36.24 54.6719 34.064 54.6719 30.32C54.6719 26.592 57.4399 24.416 60.3839 24.416C63.1359 24.416 64.8959 26 65.5039 27.872L63.6959 28.56C63.3119 27.28 62.1919 26.192 60.3839 26.192C58.5439 26.192 56.6239 27.504 56.6239 30.32C56.6239 33.088 58.4159 34.48 60.3679 34.48C62.6559 34.48 63.5199 32.912 63.6159 31.936H59.8719V30.256H65.4239ZM68.8319 32.096C68.8319 33.712 69.8719 34.576 71.0079 34.576C72.1599 34.576 73.1839 33.728 73.1839 32.096C73.1839 30.48 72.1599 29.648 71.0079 29.648C69.8719 29.648 68.8319 30.48 68.8319 32.096ZM71.0079 27.968C68.6879 27.968 66.9759 29.712 66.9759 32.096C66.9759 34.496 68.6879 36.24 71.0079 36.24C73.3439 36.24 75.0559 34.496 75.0559 32.096C75.0559 29.712 73.3439 27.968 71.0079 27.968ZM78.0959 32.096C78.0959 33.712 79.1359 34.576 80.2719 34.576C81.4239 34.576 82.4479 33.728 82.4479 32.096C82.4479 30.48 81.4239 29.648 80.2719 29.648C79.1359 29.648 78.0959 30.48 78.0959 32.096ZM80.2719 27.968C77.9519 27.968 76.2399 29.712 76.2399 32.096C76.2399 34.496 77.9519 36.24 80.2719 36.24C82.6079 36.24 84.3199 34.496 84.3199 32.096C84.3199 29.712 82.6079 27.968 80.2719 27.968ZM89.2639 39.28C87.1999 39.28 85.7599 38 85.5519 36.432L87.2639 35.984C87.3919 36.944 88.1439 37.664 89.2159 37.664C90.6879 37.664 91.4239 36.912 91.4239 35.328V34.512C91.0879 35.12 90.3039 35.648 89.1679 35.648C87.0879 35.648 85.5679 34.048 85.5679 31.856C85.5679 29.776 87.0239 28.064 89.1679 28.064C90.3839 28.064 91.1359 28.56 91.4719 29.2V28.208H93.2639V35.264C93.2639 37.344 92.1919 39.28 89.2639 39.28ZM89.4719 34.064C88.2559 34.064 87.4399 33.216 87.4399 31.856C87.4399 30.528 88.2879 29.664 89.4719 29.664C90.6239 29.664 91.4719 30.528 91.4719 31.856C91.4719 33.2 90.6559 34.064 89.4719 34.064ZM97.3919 24.416V36H95.5359V24.416H97.3919ZM101.088 31.248C101.152 30.416 101.824 29.52 102.992 29.52C104.272 29.52 104.88 30.336 104.912 31.248H101.088ZM103.168 34.64C104.288 34.64 104.864 34.048 105.12 33.28L106.688 33.776C106.272 35.136 105.04 36.24 103.168 36.24C101.056 36.24 99.1839 34.704 99.1839 32.064C99.1839 29.6 101.008 27.968 102.976 27.968C105.376 27.968 106.784 29.552 106.784 32.016C106.784 32.32 106.752 32.576 106.736 32.608H101.04C101.088 33.792 102.016 34.64 103.168 34.64ZM114.608 29.872V26.352H116.608C117.824 26.352 118.56 27.04 118.56 28.128C118.56 29.2 117.824 29.872 116.608 29.872H114.608ZM120.512 28.112C120.512 30.112 119.072 31.568 116.896 31.568H114.608V36H112.688V24.656H116.896C119.072 24.656 120.512 26.128 120.512 28.112ZM124.016 36V24.416H122.16V36H124.016ZM128.576 36.24C126.944 36.24 125.936 35.12 125.936 33.888C125.936 32.496 126.96 31.728 128.288 31.536L130.288 31.232C130.736 31.168 130.864 30.944 130.864 30.672C130.864 30.016 130.416 29.488 129.392 29.488C128.416 29.488 127.872 30.112 127.792 30.896L126.096 30.512C126.24 29.168 127.456 27.968 129.376 27.968C131.776 27.968 132.688 29.328 132.688 30.88L132.689 34.9229C132.697 35.3097 132.727 35.6107 132.752 35.7973L132.784 36H131.056C131.04 35.952 130.976 35.632 130.976 35.008C130.608 35.6 129.84 36.24 128.576 36.24ZM128.928 34.784C128.192 34.784 127.792 34.304 127.792 33.776C127.792 33.136 128.256 32.816 128.832 32.72L130.864 32.416V32.768C130.864 34.288 129.968 34.784 128.928 34.784ZM135.312 39.152H137.296L142.256 28.208H140.288L138.192 33.136L135.952 28.208H133.856L137.184 35.072L135.312 39.152Z" fill="black"/>
<path d="M20.0958 14.1295C20.0395 14.3301 20 14.5454 20 14.7921V35.1066C20 35.35 20.038 35.5641 20.0932 35.7621L31.4206 24.9603L20.0958 14.1295Z" fill="#48A0DC"/>
<path d="M22.6163 13.3406C22.089 13.0169 21.5693 12.9359 21.1304 13.0477L32.5051 23.9264L35.8417 20.7453L22.6163 13.3406Z" fill="#88C057"/>
<path d="M40.7172 23.4753L37.1867 21.4987L33.5713 24.9464L37.2546 28.4699L40.69 26.5713C42.3653 25.6102 41.7534 24.0614 40.7172 23.4753Z" fill="#FFCC66"/>
<path d="M32.4866 25.98L21.0977 36.8392C21.5432 36.9649 22.075 36.8902 22.6157 36.5584L35.8824 29.2275L32.4866 25.98Z" fill="#ED7161"/>
<path d="M58.234 12.333C59.07 12.333 59.7923 12.4907 60.401 12.806C61.017 13.114 61.4863 13.5577 61.809 14.137C62.139 14.7163 62.304 15.3983 62.304 16.183C62.304 16.9677 62.139 17.6497 61.809 18.229C61.4863 18.801 61.017 19.241 60.401 19.549C59.7923 19.8497 59.07 20 58.234 20H55.847V12.333H58.234ZM58.234 19.175C59.224 19.175 59.9793 18.9147 60.5 18.394C61.0207 17.866 61.281 17.129 61.281 16.183C61.281 15.2297 61.017 14.4853 60.489 13.95C59.9683 13.4147 59.2167 13.147 58.234 13.147H56.848V19.175H58.234ZM64.1413 12.993C63.9507 12.993 63.7893 12.927 63.6573 12.795C63.5253 12.663 63.4593 12.5017 63.4593 12.311C63.4593 12.1203 63.5253 11.959 63.6573 11.827C63.7893 11.695 63.9507 11.629 64.1413 11.629C64.3247 11.629 64.4787 11.695 64.6033 11.827C64.7353 11.959 64.8013 12.1203 64.8013 12.311C64.8013 12.5017 64.7353 12.663 64.6033 12.795C64.4787 12.927 64.3247 12.993 64.1413 12.993ZM64.6253 13.972V20H63.6243V13.972H64.6253ZM68.4654 20.099C68.0034 20.099 67.589 20.022 67.2224 19.868C66.8557 19.7067 66.566 19.4867 66.3534 19.208C66.1407 18.922 66.0234 18.5957 66.0014 18.229H67.0354C67.0647 18.5297 67.204 18.7753 67.4534 18.966C67.71 19.1567 68.0437 19.252 68.4544 19.252C68.8357 19.252 69.1364 19.1677 69.3564 18.999C69.5764 18.8303 69.6864 18.6177 69.6864 18.361C69.6864 18.097 69.569 17.9027 69.3344 17.778C69.0997 17.646 68.7367 17.5177 68.2454 17.393C67.798 17.2757 67.4314 17.1583 67.1454 17.041C66.8667 16.9163 66.6247 16.7367 66.4194 16.502C66.2214 16.26 66.1224 15.9447 66.1224 15.556C66.1224 15.248 66.214 14.9657 66.3974 14.709C66.5807 14.4523 66.841 14.2507 67.1784 14.104C67.5157 13.95 67.9007 13.873 68.3334 13.873C69.0007 13.873 69.5397 14.0417 69.9504 14.379C70.361 14.7163 70.581 15.1783 70.6104 15.765H69.6094C69.5874 15.4497 69.459 15.1967 69.2244 15.006C68.997 14.8153 68.689 14.72 68.3004 14.72C67.941 14.72 67.655 14.797 67.4424 14.951C67.2297 15.105 67.1234 15.3067 67.1234 15.556C67.1234 15.754 67.1857 15.919 67.3104 16.051C67.4424 16.1757 67.6037 16.2783 67.7944 16.359C67.9924 16.4323 68.2637 16.5167 68.6084 16.612C69.041 16.7293 69.393 16.8467 69.6644 16.964C69.9357 17.074 70.1667 17.2427 70.3574 17.47C70.5554 17.6973 70.658 17.9943 70.6654 18.361C70.6654 18.691 70.5737 18.988 70.3904 19.252C70.207 19.516 69.9467 19.725 69.6094 19.879C69.2794 20.0257 68.898 20.099 68.4654 20.099ZM73.0794 15.083C73.2774 14.7383 73.5708 14.4523 73.9594 14.225C74.3554 13.9903 74.8138 13.873 75.3344 13.873C75.8698 13.873 76.3538 14.0013 76.7864 14.258C77.2264 14.5147 77.5711 14.8777 77.8204 15.347C78.0698 15.809 78.1944 16.348 78.1944 16.964C78.1944 17.5727 78.0698 18.1153 77.8204 18.592C77.5711 19.0687 77.2264 19.439 76.7864 19.703C76.3538 19.967 75.8698 20.099 75.3344 20.099C74.8211 20.099 74.3664 19.9853 73.9704 19.758C73.5818 19.5233 73.2848 19.2337 73.0794 18.889V22.86H72.0784V13.972H73.0794V15.083ZM77.1714 16.964C77.1714 16.5093 77.0798 16.1133 76.8964 15.776C76.7131 15.4387 76.4638 15.182 76.1484 15.006C75.8404 14.83 75.4994 14.742 75.1254 14.742C74.7588 14.742 74.4178 14.8337 74.1024 15.017C73.7944 15.193 73.5451 15.4533 73.3544 15.798C73.1711 16.1353 73.0794 16.5277 73.0794 16.975C73.0794 17.4297 73.1711 17.8293 73.3544 18.174C73.5451 18.5113 73.7944 18.7717 74.1024 18.955C74.4178 19.131 74.7588 19.219 75.1254 19.219C75.4994 19.219 75.8404 19.131 76.1484 18.955C76.4638 18.7717 76.7131 18.5113 76.8964 18.174C77.0798 17.8293 77.1714 17.426 77.1714 16.964ZM82.141 20.099C81.5764 20.099 81.063 19.9707 80.601 19.714C80.1464 19.4573 79.787 19.0943 79.523 18.625C79.2664 18.1483 79.138 17.5983 79.138 16.975C79.138 16.359 79.27 15.8163 79.534 15.347C79.8054 14.8703 80.172 14.5073 80.634 14.258C81.096 14.0013 81.613 13.873 82.185 13.873C82.757 13.873 83.274 14.0013 83.736 14.258C84.198 14.5073 84.561 14.8667 84.825 15.336C85.0964 15.8053 85.232 16.3517 85.232 16.975C85.232 17.5983 85.0927 18.1483 84.814 18.625C84.5427 19.0943 84.1724 19.4573 83.703 19.714C83.2337 19.9707 82.713 20.099 82.141 20.099ZM82.141 19.219C82.5004 19.219 82.8377 19.1347 83.153 18.966C83.4684 18.7973 83.7214 18.5443 83.912 18.207C84.11 17.8697 84.209 17.459 84.209 16.975C84.209 16.491 84.1137 16.0803 83.923 15.743C83.7324 15.4057 83.483 15.1563 83.175 14.995C82.867 14.8263 82.5334 14.742 82.174 14.742C81.8074 14.742 81.47 14.8263 81.162 14.995C80.8614 15.1563 80.6194 15.4057 80.436 15.743C80.2527 16.0803 80.161 16.491 80.161 16.975C80.161 17.4663 80.249 17.8807 80.425 18.218C80.6084 18.5553 80.8504 18.8083 81.151 18.977C81.4517 19.1383 81.7817 19.219 82.141 19.219ZM89.4852 13.862C90.2185 13.862 90.8125 14.0857 91.2672 14.533C91.7218 14.973 91.9492 15.611 91.9492 16.447V20H90.9592V16.59C90.9592 15.9887 90.8088 15.5303 90.5082 15.215C90.2075 14.8923 89.7968 14.731 89.2762 14.731C88.7482 14.731 88.3265 14.896 88.0112 15.226C87.7032 15.556 87.5492 16.0363 87.5492 16.667V20H86.5482V13.972H87.5492V14.83C87.7472 14.522 88.0148 14.2837 88.3522 14.115C88.6968 13.9463 89.0745 13.862 89.4852 13.862ZM94.5853 13.972V20H93.5843V13.972H94.5853ZM95.1573 12.267L92.8143 13.521V12.773L95.1573 11.398V12.267ZM98.5353 19.076L100.405 13.972H101.472L99.1073 20H97.9413L95.5763 13.972H96.6543L98.5353 19.076ZM107.957 16.755C107.957 16.9457 107.946 17.1473 107.924 17.36H103.106C103.143 17.954 103.345 18.4197 103.711 18.757C104.085 19.087 104.536 19.252 105.064 19.252C105.497 19.252 105.856 19.153 106.142 18.955C106.436 18.7497 106.641 18.4783 106.758 18.141H107.836C107.675 18.7203 107.352 19.1933 106.868 19.56C106.384 19.9193 105.783 20.099 105.064 20.099C104.492 20.099 103.979 19.9707 103.524 19.714C103.077 19.4573 102.725 19.0943 102.468 18.625C102.212 18.1483 102.083 17.5983 102.083 16.975C102.083 16.3517 102.208 15.8053 102.457 15.336C102.707 14.8667 103.055 14.5073 103.502 14.258C103.957 14.0013 104.478 13.873 105.064 13.873C105.636 13.873 106.142 13.9977 106.582 14.247C107.022 14.4963 107.36 14.841 107.594 15.281C107.836 15.7137 107.957 16.205 107.957 16.755ZM106.923 16.546C106.923 16.1647 106.839 15.8383 106.67 15.567C106.502 15.2883 106.271 15.0793 105.977 14.94C105.691 14.7933 105.372 14.72 105.02 14.72C104.514 14.72 104.082 14.8813 103.722 15.204C103.37 15.5267 103.169 15.974 103.117 16.546H106.923ZM110.28 11.86V20H109.279V11.86H110.28ZM117.855 13.862C118.589 13.862 119.183 14.0857 119.637 14.533C120.092 14.973 120.319 15.611 120.319 16.447V20H119.329V16.59C119.329 15.9887 119.179 15.5303 118.878 15.215C118.578 14.8923 118.167 14.731 117.646 14.731C117.118 14.731 116.697 14.896 116.381 15.226C116.073 15.556 115.919 16.0363 115.919 16.667V20H114.918V13.972H115.919V14.83C116.117 14.522 116.385 14.2837 116.722 14.115C117.067 13.9463 117.445 13.862 117.855 13.862ZM124.583 20.099C124.019 20.099 123.505 19.9707 123.043 19.714C122.589 19.4573 122.229 19.0943 121.965 18.625C121.709 18.1483 121.58 17.5983 121.58 16.975C121.58 16.359 121.712 15.8163 121.976 15.347C122.248 14.8703 122.614 14.5073 123.076 14.258C123.538 14.0013 124.055 13.873 124.627 13.873C125.199 13.873 125.716 14.0013 126.178 14.258C126.64 14.5073 127.003 14.8667 127.267 15.336C127.539 15.8053 127.674 16.3517 127.674 16.975C127.674 17.5983 127.535 18.1483 127.256 18.625C126.985 19.0943 126.615 19.4573 126.145 19.714C125.676 19.9707 125.155 20.099 124.583 20.099ZM124.583 19.219C124.943 19.219 125.28 19.1347 125.595 18.966C125.911 18.7973 126.164 18.5443 126.354 18.207C126.552 17.8697 126.651 17.459 126.651 16.975C126.651 16.491 126.556 16.0803 126.365 15.743C126.175 15.4057 125.925 15.1563 125.617 14.995C125.309 14.8263 124.976 14.742 124.616 14.742C124.25 14.742 123.912 14.8263 123.604 14.995C123.304 15.1563 123.062 15.4057 122.878 15.743C122.695 16.0803 122.603 16.491 122.603 16.975C122.603 17.4663 122.691 17.8807 122.867 18.218C123.051 18.5553 123.293 18.8083 123.593 18.977C123.894 19.1383 124.224 19.219 124.583 19.219Z" fill="black"/>
</svg>
