<svg width="556" height="409" viewBox="0 0 556 409" fill="none" xmlns="http://www.w3.org/2000/svg">
<path d="M455.263 133.796C491.617 133.796 521.088 104.293 521.088 67.8981C521.088 31.5036 491.617 2 455.263 2C418.909 2 389.438 31.5036 389.438 67.8981C389.438 104.293 418.909 133.796 455.263 133.796Z" stroke="#B1C2FA" stroke-width="3" stroke-miterlimit="10"/>
<path d="M437.885 43.6476C443.121 43.6476 447.365 39.3989 447.365 34.1579C447.365 28.9169 443.121 24.6682 437.885 24.6682C432.65 24.6682 428.406 28.9169 428.406 34.1579C428.406 39.3989 432.65 43.6476 437.885 43.6476Z" stroke="#B1C2FA" stroke-width="3" stroke-miterlimit="10"/>
<path d="M468.954 110.073C472.153 110.073 474.747 107.476 474.747 104.274C474.747 101.071 472.153 98.4751 468.954 98.4751C465.755 98.4751 463.162 101.071 463.162 104.274C463.162 107.476 465.755 110.073 468.954 110.073Z" stroke="#B1C2FA" stroke-width="3" stroke-miterlimit="10"/>
<path d="M385.444 62.5688C363.4 64.1396 349.416 65.6326 349.416 68.3807C349.416 73.3549 395.214 77.387 451.708 77.387C508.202 77.387 554 73.3549 554 68.3807C554 65.9288 542.873 64.7602 524.822 63.1365" stroke="#B1C2FA" stroke-width="3" stroke-miterlimit="10" stroke-linecap="round"/>
<path opacity="0.5" d="M390.826 81.4184C407.837 82.5297 428.902 83.1866 451.709 83.1866C477.86 83.1866 501.721 82.3228 519.806 80.9009" stroke="#B1C2FA" stroke-width="3" stroke-miterlimit="10" stroke-linecap="round"/>
<path d="M415.539 167.028V182.421" stroke="#B1C2FA" stroke-width="3" stroke-miterlimit="10" stroke-linecap="round"/>
<path d="M408.331 174.724H422.746" stroke="#B1C2FA" stroke-width="3" stroke-miterlimit="10" stroke-linecap="round"/>
<path d="M151.973 156.878V172.271" stroke="#B1C2FA" stroke-width="3" stroke-miterlimit="10" stroke-linecap="round"/>
<path d="M144.765 164.575H159.18" stroke="#B1C2FA" stroke-width="3" stroke-miterlimit="10" stroke-linecap="round"/>
<path d="M272.028 85.2771V100.669" stroke="#B1C2FA" stroke-width="3" stroke-miterlimit="10" stroke-linecap="round"/>
<path d="M264.82 92.9731H279.235" stroke="#B1C2FA" stroke-width="3" stroke-miterlimit="10" stroke-linecap="round"/>
<path d="M185.412 339.587V354.979" stroke="#B1C2FA" stroke-width="3" stroke-miterlimit="10" stroke-linecap="round"/>
<path d="M192.619 347.283H178.205" stroke="#B1C2FA" stroke-width="3" stroke-miterlimit="10" stroke-linecap="round"/>
<path d="M353.26 265.123V273.332" stroke="#B1C2FA" stroke-width="3" stroke-miterlimit="10" stroke-linecap="round"/>
<path d="M349.416 269.228H357.104" stroke="#B1C2FA" stroke-width="3" stroke-miterlimit="10" stroke-linecap="round"/>
<path d="M394.864 206.507V212.574" stroke="#B1C2FA" stroke-width="3" stroke-miterlimit="10" stroke-linecap="round"/>
<path d="M392.022 209.541H397.705" stroke="#B1C2FA" stroke-width="3" stroke-miterlimit="10" stroke-linecap="round"/>
<path d="M207.742 200.152V206.22" stroke="#B1C2FA" stroke-width="3" stroke-miterlimit="10" stroke-linecap="round"/>
<path d="M204.901 203.186H210.583" stroke="#B1C2FA" stroke-width="3" stroke-miterlimit="10" stroke-linecap="round"/>
<path d="M216.851 386.353V392.42" stroke="#B1C2FA" stroke-width="3" stroke-miterlimit="10" stroke-linecap="round"/>
<path d="M219.691 389.387H214.009" stroke="#B1C2FA" stroke-width="3" stroke-miterlimit="10" stroke-linecap="round"/>
<path d="M175.036 284.319V290.387" stroke="#B1C2FA" stroke-width="3" stroke-miterlimit="10" stroke-linecap="round"/>
<path d="M177.876 287.353H172.194" stroke="#B1C2FA" stroke-width="3" stroke-miterlimit="10" stroke-linecap="round"/>
<path d="M388.151 284.319V290.387" stroke="#B1C2FA" stroke-width="3" stroke-miterlimit="10" stroke-linecap="round"/>
<path d="M390.993 287.353H385.311" stroke="#B1C2FA" stroke-width="3" stroke-miterlimit="10" stroke-linecap="round"/>
<path d="M466.949 180.496C470.133 180.496 472.715 177.912 472.715 174.725C472.715 171.537 470.133 168.953 466.949 168.953C463.765 168.953 461.184 171.537 461.184 174.725C461.184 177.912 463.765 180.496 466.949 180.496Z" stroke="#B1C2FA" stroke-width="3" stroke-miterlimit="10" stroke-linecap="round"/>
<path d="M366.233 227.155C369.417 227.155 371.999 224.571 371.999 221.383C371.999 218.195 369.417 215.611 366.233 215.611C363.049 215.611 360.468 218.195 360.468 221.383C360.468 224.571 363.049 227.155 366.233 227.155Z" stroke="#B1C2FA" stroke-width="3" stroke-miterlimit="10" stroke-linecap="round"/>
<path d="M161.944 251.466C165.128 251.466 167.71 248.882 167.71 245.694C167.71 242.506 165.128 239.922 161.944 239.922C158.76 239.922 156.179 242.506 156.179 245.694C156.179 248.882 158.76 251.466 161.944 251.466Z" stroke="#B1C2FA" stroke-width="3" stroke-miterlimit="10" stroke-linecap="round"/>
<path d="M351.338 140.725C354.522 140.725 357.103 138.141 357.103 134.953C357.103 131.766 354.522 129.181 351.338 129.181C348.154 129.181 345.572 131.766 345.572 134.953C345.572 138.141 348.154 140.725 351.338 140.725Z" stroke="#B1C2FA" stroke-width="3" stroke-miterlimit="10" stroke-linecap="round"/>
<path d="M185.411 122.672C188.596 122.672 191.177 120.088 191.177 116.9C191.177 113.712 188.596 111.128 185.411 111.128C182.227 111.128 179.646 113.712 179.646 116.9C179.646 120.088 182.227 122.672 185.411 122.672Z" stroke="#B1C2FA" stroke-width="3" stroke-miterlimit="10" stroke-linecap="round"/>
<path d="M136.597 340.934C139.781 340.934 142.363 338.35 142.363 335.163C142.363 331.975 139.781 329.391 136.597 329.391C133.413 329.391 130.832 331.975 130.832 335.163C130.832 338.35 133.413 340.934 136.597 340.934Z" stroke="#B1C2FA" stroke-width="3" stroke-miterlimit="10" stroke-linecap="round"/>
<path d="M245.482 407C248.666 407 251.247 404.416 251.247 401.228C251.247 398.041 248.666 395.457 245.482 395.457C242.298 395.457 239.716 398.041 239.716 401.228C239.716 404.416 242.298 407 245.482 407Z" stroke="#B1C2FA" stroke-width="3" stroke-miterlimit="10" stroke-linecap="round"/>
<path d="M339.807 344.834C342.991 344.834 345.572 342.25 345.572 339.062C345.572 335.875 342.991 333.291 339.807 333.291C336.622 333.291 334.041 335.875 334.041 339.062C334.041 342.25 336.622 344.834 339.807 344.834Z" stroke="#B1C2FA" stroke-width="3" stroke-miterlimit="10" stroke-linecap="round"/>
<path d="M438.601 202.642C439.385 202.642 440.022 203.279 440.022 204.066C440.022 204.853 439.385 205.49 438.601 205.49C437.816 205.49 437.179 204.853 437.179 204.066C437.179 203.279 437.816 202.642 438.601 202.642Z" stroke="#B1C2FA"/>
<path d="M223.562 153.893C224.347 153.893 224.984 154.529 224.984 155.316C224.984 156.104 224.347 156.741 223.562 156.741C222.778 156.741 222.141 156.103 222.141 155.316C222.141 154.53 222.778 153.893 223.562 153.893Z" stroke="#B1C2FA"/>
<path d="M355.182 179.073C355.966 179.073 356.603 179.71 356.604 180.497C356.604 181.284 355.967 181.922 355.182 181.922C354.397 181.922 353.76 181.284 353.76 180.497C353.76 179.71 354.397 179.073 355.182 179.073Z" stroke="#B1C2FA"/>
<path d="M173.113 382.488C173.898 382.488 174.535 383.124 174.535 383.911C174.535 384.698 173.898 385.336 173.113 385.336C172.329 385.336 171.691 384.698 171.691 383.911C171.692 383.125 172.329 382.488 173.113 382.488Z" stroke="#B1C2FA"/>
<path d="M317.256 372.868C318.041 372.868 318.678 373.505 318.678 374.292C318.678 375.079 318.041 375.717 317.256 375.717C316.471 375.716 315.834 375.079 315.834 374.292C315.834 373.505 316.471 372.868 317.256 372.868Z" stroke="#B1C2FA"/>
<path d="M134.675 209.324C135.46 209.324 136.097 209.961 136.097 210.748C136.097 211.535 135.46 212.173 134.675 212.173C133.891 212.173 133.253 211.535 133.253 210.748C133.254 209.961 133.891 209.324 134.675 209.324Z" stroke="#B1C2FA"/>
<path d="M388.15 333.738C388.935 333.738 389.572 334.375 389.572 335.162C389.572 335.949 388.935 336.587 388.15 336.587C387.366 336.587 386.729 335.949 386.729 335.162C386.729 334.375 387.366 333.738 388.15 333.738Z" stroke="#B1C2FA"/>
<path d="M238.443 287.224C238.443 287.224 198.909 315.896 154.817 314.964C153.164 314.93 151.246 314.789 149.132 314.567C99.8022 309.357 51.7685 282.656 27.8118 239.173C27.1535 237.978 26.5118 236.778 25.8876 235.57C12.5505 209.794 -1.12659 175.045 2.632 149.327" stroke="#B1C2FA" stroke-width="3" stroke-miterlimit="10" stroke-linecap="round" stroke-linejoin="round"/>
<path d="M285.1 318.958L238.171 306.362C230.134 304.205 225.364 295.933 227.519 287.886L238.898 245.397C241.718 234.87 252.528 228.623 263.044 231.446L300.999 241.633C311.515 244.456 317.754 255.278 314.935 265.806L303.556 308.295C301.401 316.341 293.139 321.115 285.1 318.958Z" stroke="#B1C2FA" stroke-width="3" stroke-miterlimit="10" stroke-linecap="round" stroke-linejoin="round"/>
<path d="M274.393 160.677L254.011 245.694" stroke="#B1C2FA" stroke-width="3" stroke-miterlimit="10" stroke-linecap="round" stroke-linejoin="round"/>
<path d="M274.588 164.573C277.141 164.573 279.211 162.501 279.211 159.946C279.211 157.39 277.141 155.318 274.588 155.318C272.036 155.318 269.966 157.39 269.966 159.946C269.966 162.501 272.036 164.573 274.588 164.573Z" stroke="#B1C2FA" stroke-width="3" stroke-miterlimit="10" stroke-linecap="round" stroke-linejoin="round"/>
<path d="M301.391 252.434C302.371 253.204 304.951 256.104 305.613 257.25L325.823 291.825C328.618 296.651 326.976 302.831 322.155 305.63C317.334 308.428 311.161 306.784 308.365 301.958L304.302 294.944" stroke="#B1C2FA" stroke-width="3" stroke-miterlimit="10" stroke-linecap="round" stroke-linejoin="round"/>
<path d="M321.785 304.432C325.58 302.226 327.39 297.924 326.627 293.839C328.326 294.814 329.805 296.227 330.859 298.044C334.057 303.558 332.185 310.623 326.677 313.825C321.17 317.026 314.113 315.152 310.914 309.639C309.643 307.446 308.872 305.416 309.113 303.073C312.26 306.376 317.67 306.825 321.785 304.432Z" stroke="#B1C2FA" stroke-width="3" stroke-miterlimit="10" stroke-linecap="round" stroke-linejoin="round"/>
<path d="M258.373 241.271C257.139 241.447 254.088 242.452 252.941 243.112L218.164 262.929C213.333 265.708 211.666 271.882 214.442 276.719C217.218 281.556 223.385 283.225 228.217 280.445L235.239 276.407" stroke="#B1C2FA" stroke-width="3" stroke-miterlimit="10" stroke-linecap="round" stroke-linejoin="round"/>
<path d="M215.362 275.868C213.178 272.057 213.76 267.426 216.462 264.271C214.504 264.265 212.518 264.747 210.697 265.793C205.173 268.965 203.263 276.02 206.431 281.551C209.6 287.081 216.647 288.993 222.171 285.821C224.368 284.559 226.05 283.188 227.011 281.038C222.637 282.321 217.729 280 215.362 275.868Z" stroke="#B1C2FA" stroke-width="3" stroke-miterlimit="10" stroke-linecap="round" stroke-linejoin="round"/>
<path d="M296.111 254.139C290.349 255.055 284.33 254.813 278.362 253.211C272.394 251.609 267.062 248.805 262.53 245.125C250.202 248.179 239.859 257.674 236.336 270.828L235.34 274.546C230.184 293.799 241.588 313.59 260.811 318.75C280.033 323.909 299.797 312.484 304.953 293.23L305.949 289.512C309.471 276.358 305.261 262.957 296.111 254.139Z" stroke="#B1C2FA" stroke-width="3" stroke-miterlimit="10" stroke-linecap="round" stroke-linejoin="round"/>
<path d="M235.445 275.569C254.514 290.553 278.697 297.043 302.951 294.241L304.705 294.158" stroke="#B1C2FA" stroke-width="3" stroke-miterlimit="10" stroke-linecap="round" stroke-linejoin="round"/>
<path d="M266.824 320.442L256.446 359.199C255.071 364.331 258.112 369.606 263.239 370.982C268.365 372.358 273.635 369.314 275.009 364.181L287.943 315.888C281.683 319.827 274.487 320.916 266.824 320.442Z" stroke="#B1C2FA" stroke-width="3" stroke-miterlimit="10" stroke-linecap="round" stroke-linejoin="round"/>
<path d="M260.971 342.301L279.535 347.283" stroke="#B1C2FA" stroke-width="3" stroke-miterlimit="10" stroke-linecap="round" stroke-linejoin="round"/>
<path d="M254.758 317.204L244.379 355.96C243.005 361.092 237.735 364.137 232.609 362.761C227.483 361.385 224.441 356.11 225.815 350.978L238.749 302.685C242.199 309.23 247.886 313.776 254.758 317.204Z" stroke="#B1C2FA" stroke-width="3" stroke-miterlimit="10" stroke-linecap="round" stroke-linejoin="round"/>
<path d="M230.341 334.08L248.904 339.063" stroke="#B1C2FA" stroke-width="3" stroke-miterlimit="10" stroke-linecap="round" stroke-linejoin="round"/>
<path d="M329.616 229.062C336.042 205.071 322.343 180.546 299.019 174.285C275.694 168.023 251.577 182.397 245.151 206.388C238.725 230.38 252.424 254.904 275.748 261.166C299.072 267.427 323.19 253.054 329.616 229.062Z" stroke="#B1C2FA" stroke-width="3" stroke-miterlimit="10" stroke-linecap="round" stroke-linejoin="round"/>
<path d="M279.81 178.615C274.061 179.863 268.658 182.423 264.005 186.052" stroke="#B1C2FA" stroke-width="3" stroke-miterlimit="10" stroke-linecap="round" stroke-linejoin="round"/>
<path d="M316.054 240.186C315.15 243.562 312.67 246.298 309.387 247.488C302.621 249.939 290.391 253.162 278.717 250.028C267.043 246.895 258.064 237.98 253.43 232.468C251.181 229.794 250.401 226.183 251.305 222.807L256.709 202.63C257.257 200.583 259.015 199.096 261.123 198.906C266.021 198.463 276.02 198.465 291.419 202.598C306.818 206.732 315.476 211.738 319.496 214.573C321.226 215.794 322.005 217.962 321.457 220.009L316.054 240.186Z" stroke="#B1C2FA" stroke-width="3" stroke-miterlimit="10" stroke-linecap="round" stroke-linejoin="round"/>
<mask id="mask0_144_94" style="mask-type:luminance" maskUnits="userSpaceOnUse" x="250" y="198" width="72" height="54">
<path d="M261.168 199.404C266.004 198.967 275.944 198.962 291.29 203.081C305.676 206.943 314.137 211.563 318.409 214.433L319.208 214.982C320.668 216.013 321.378 217.793 321.053 219.532L320.974 219.879L315.571 240.057C314.735 243.176 312.49 245.721 309.507 246.907L309.216 247.018C302.478 249.459 290.369 252.638 278.846 249.545C268.044 246.645 259.549 238.715 254.727 233.213L253.812 232.146C251.737 229.679 250.974 226.371 251.712 223.238L251.789 222.937L257.192 202.759C257.655 201.029 259.077 199.744 260.816 199.449L261.167 199.404H261.168Z" fill="white" stroke="white"/>
</mask>
<g mask="url(#mask0_144_94)">
<path d="M241.795 261.551L317.61 180.602L304.117 171.56L231.914 253.805L241.795 261.551Z" stroke="#B1C2FA" stroke-width="3" stroke-miterlimit="10"/>
</g>
</svg>
