<svg width="772" height="900" viewBox="0 0 772 900" fill="none" xmlns="http://www.w3.org/2000/svg">
<g clip-path="url(#clip0_115_2)">
<rect width="772" height="900" fill="url(#paint0_linear_115_2)"/>
<path d="M703.562 644.286C703.432 651.648 704.511 658.653 706.564 665.128C686.586 670.867 671.503 692.256 671.051 718.002C670.857 729.057 673.397 739.411 677.911 748.122C655.072 757.592 638.4 783.402 637.862 814.028C637.199 851.777 661.268 883.064 692.272 885.718C690.174 892.724 688.982 900.241 688.845 908.089C688.157 947.228 714.042 979.411 746.645 979.984C779.249 980.556 806.247 949.301 806.934 910.193C807.118 899.69 805.367 889.694 802.108 880.687C821.515 866.505 834.713 841.129 835.225 811.946C835.68 786.059 826.057 762.793 810.681 747.51C817.585 739.458 821.942 728.304 822.16 715.894C822.563 692.944 808.654 673.791 790.249 670.551C793.487 663.158 795.413 654.79 795.569 645.901C796.105 615.421 775.943 590.355 750.535 589.909C725.126 589.463 704.097 613.805 703.562 644.286Z" fill="#5F6EA6"/>
<path d="M683.562 444.286C683.432 451.648 684.511 458.653 686.564 465.128C666.586 470.867 651.503 492.256 651.051 518.002C650.857 529.057 653.397 539.411 657.911 548.122C635.072 557.592 618.4 583.402 617.862 614.028C617.199 651.777 641.268 683.064 672.272 685.718C670.174 692.724 668.982 700.241 668.845 708.089C668.157 747.228 694.042 779.411 726.645 779.984C759.249 780.556 786.247 749.301 786.934 710.193C787.118 699.69 785.367 689.694 782.108 680.687C801.515 666.505 814.713 641.129 815.225 611.946C815.68 586.059 806.057 562.793 790.681 547.51C797.585 539.458 801.942 528.304 802.16 515.894C802.563 492.944 788.654 473.791 770.249 470.551C773.487 463.158 775.413 454.79 775.569 445.901C776.105 415.421 755.943 390.355 730.535 389.909C705.126 389.463 684.097 413.805 683.562 444.286Z" fill="#5F6EA6"/>
<path d="M693.562 74.2856C693.432 81.6484 694.511 88.6535 696.564 95.1275C676.586 100.867 661.503 122.256 661.051 148.002C660.857 159.057 663.397 169.411 667.911 178.122C645.072 187.592 628.4 213.402 627.862 244.028C627.199 281.777 651.268 313.064 682.272 315.718C680.174 322.724 678.982 330.241 678.845 338.089C678.157 377.228 704.042 409.411 736.645 409.984C769.249 410.556 796.247 379.301 796.934 340.193C797.118 329.69 795.367 319.694 792.108 310.687C811.515 296.505 824.713 271.129 825.225 241.946C825.68 216.059 816.057 192.793 800.681 177.51C807.585 169.458 811.942 158.304 812.16 145.894C812.563 122.944 798.654 103.791 780.249 100.551C783.487 93.1583 785.413 84.7899 785.569 75.9012C786.105 45.4209 765.943 20.3551 740.535 19.9089C715.126 19.4627 694.097 43.8053 693.562 74.2856Z" fill="#5F6EA6"/>
<path d="M675.237 558.653C677.647 551.694 678.797 544.701 678.857 537.909C699.629 538.659 720.609 523.012 729.035 498.679C732.654 488.231 733.455 477.601 731.87 467.919C756.521 466.011 780.384 446.655 790.408 417.711C802.762 382.034 789.601 344.82 760.955 332.668C765.125 326.66 768.592 319.884 771.161 312.467C783.97 275.477 769.361 236.846 738.549 226.176C707.735 215.505 672.365 236.829 659.566 273.789C656.128 283.716 654.688 293.762 654.988 303.335C632.136 310.789 611.71 330.811 602.159 358.391C593.687 382.857 595.607 407.961 605.476 427.263C596.413 432.773 588.807 442.022 584.746 453.751C577.235 475.44 584.507 497.966 600.995 506.763C595.621 512.784 591.191 520.14 588.282 528.541C578.306 557.347 589.686 587.436 613.699 595.751C637.712 604.067 665.262 587.46 675.237 558.653Z" fill="#5F6EA6"/>
<path d="M636.562 594.286C636.432 601.648 637.511 608.653 639.564 615.128C619.586 620.867 604.503 642.256 604.051 668.002C603.857 679.057 606.397 689.411 610.911 698.122C588.072 707.592 571.4 733.402 570.862 764.028C570.199 801.777 594.268 833.064 625.272 835.718C623.174 842.724 621.982 850.241 621.845 858.089C621.157 897.228 647.042 929.411 679.645 929.984C712.249 930.556 739.247 899.301 739.934 860.193C740.118 849.69 738.367 839.694 735.108 830.687C754.515 816.505 767.713 791.129 768.225 761.946C768.68 736.059 759.057 712.793 743.681 697.51C750.585 689.458 754.942 678.304 755.16 665.894C755.563 642.944 741.654 623.791 723.249 620.551C726.487 613.158 728.413 604.79 728.569 595.901C729.105 565.421 708.943 540.355 683.535 539.909C658.126 539.463 637.097 563.805 636.562 594.286Z" fill="#5F6EA6" fill-opacity="0.32"/>
<path d="M616.562 394.286C616.432 401.648 617.511 408.653 619.564 415.128C599.586 420.867 584.503 442.256 584.051 468.002C583.857 479.057 586.397 489.411 590.911 498.122C568.072 507.592 551.4 533.402 550.862 564.028C550.199 601.777 574.268 633.064 605.272 635.718C603.174 642.724 601.982 650.241 601.845 658.089C601.157 697.228 627.042 729.411 659.645 729.984C692.249 730.556 719.247 699.301 719.934 660.193C720.118 649.69 718.367 639.694 715.108 630.687C734.515 616.505 747.713 591.129 748.225 561.946C748.68 536.059 739.057 512.793 723.681 497.51C730.585 489.458 734.942 478.304 735.16 465.894C735.563 442.944 721.654 423.791 703.249 420.551C706.487 413.158 708.413 404.79 708.569 395.901C709.105 365.421 688.943 340.355 663.535 339.909C638.126 339.463 617.097 363.805 616.562 394.286Z" fill="#5F6EA6" fill-opacity="0.32"/>
<path d="M659.562 24.2856C659.432 31.6484 660.511 38.6535 662.564 45.1275C642.586 50.8666 627.503 72.2561 627.051 98.0021C626.857 109.057 629.397 119.411 633.911 128.122C611.072 137.592 594.4 163.402 593.862 194.028C593.199 231.777 617.268 263.064 648.272 265.718C646.174 272.724 644.982 280.241 644.845 288.089C644.157 327.228 670.042 359.411 702.645 359.984C735.249 360.556 762.247 329.301 762.934 290.193C763.118 279.69 761.367 269.694 758.108 260.687C777.515 246.505 790.713 221.129 791.225 191.946C791.68 166.059 782.057 142.793 766.681 127.51C773.585 119.458 777.942 108.304 778.16 95.8939C778.563 72.9444 764.654 53.7913 746.249 50.5506C749.487 43.1583 751.413 34.7899 751.569 25.9012C752.105 -4.57908 731.943 -29.6449 706.535 -30.0911C681.126 -30.5373 660.097 -6.19474 659.562 24.2856Z" fill="#5F6EA6" fill-opacity="0.32"/>
<path d="M608.237 508.653C610.647 501.694 611.797 494.701 611.857 487.909C632.629 488.659 653.609 473.012 662.035 448.679C665.654 438.231 666.455 427.601 664.87 417.919C689.521 416.011 713.384 396.655 723.408 367.711C735.762 332.034 722.601 294.82 693.955 282.668C698.125 276.66 701.592 269.884 704.161 262.467C716.97 225.477 702.361 186.846 671.549 176.176C640.735 165.505 605.365 186.829 592.566 223.789C589.128 233.716 587.688 243.762 587.988 253.335C565.136 260.789 544.71 280.811 535.159 308.391C526.687 332.857 528.607 357.961 538.476 377.263C529.413 382.773 521.807 392.022 517.746 403.751C510.235 425.44 517.507 447.966 533.995 456.763C528.621 462.784 524.191 470.14 521.282 478.541C511.306 507.347 522.686 537.436 546.699 545.751C570.712 554.067 598.262 537.46 608.237 508.653Z" fill="#5F6EA6" fill-opacity="0.32"/>
<path d="M738.579 603.286C738.45 610.648 739.529 617.653 741.582 624.128C721.604 629.867 706.521 651.256 706.069 677.002C705.875 688.057 708.414 698.411 712.928 707.122C690.089 716.592 673.418 742.402 672.88 773.028C672.217 810.777 696.285 842.064 727.29 844.718C725.191 851.724 724 859.241 723.862 867.089C723.175 906.228 749.06 938.411 781.663 938.984C814.267 939.556 841.265 908.301 841.951 869.193C842.136 858.69 840.384 848.694 837.126 839.687C856.533 825.505 869.73 800.129 870.243 770.946C870.697 745.059 861.074 721.793 845.698 706.51C852.603 698.458 856.959 687.304 857.177 674.894C857.58 651.944 843.671 632.791 825.266 629.551C828.505 622.158 830.431 613.79 830.587 604.901C831.122 574.421 810.96 549.355 785.552 548.909C760.144 548.463 739.114 572.805 738.579 603.286Z" fill="white"/>
<path d="M718.579 403.286C718.45 410.648 719.529 417.653 721.582 424.128C701.604 429.867 686.521 451.256 686.069 477.002C685.875 488.057 688.414 498.411 692.928 507.122C670.089 516.592 653.418 542.402 652.88 573.028C652.217 610.777 676.285 642.064 707.29 644.718C705.191 651.724 704 659.241 703.862 667.089C703.175 706.228 729.06 738.411 761.663 738.984C794.267 739.556 821.265 708.301 821.951 669.193C822.136 658.69 820.384 648.694 817.126 639.687C836.533 625.505 849.73 600.129 850.243 570.946C850.697 545.059 841.074 521.793 825.698 506.51C832.603 498.458 836.959 487.304 837.177 474.894C837.58 451.944 823.671 432.791 805.266 429.551C808.505 422.158 810.431 413.79 810.587 404.901C811.122 374.421 790.96 349.355 765.552 348.909C740.144 348.463 719.114 372.805 718.579 403.286Z" fill="white"/>
<path d="M804.954 304.961C804.317 297.624 802.516 290.769 799.801 284.544C819.074 276.759 831.852 253.917 829.625 228.264C828.669 217.248 825.067 207.215 819.672 199.02C841.403 187.228 855.301 159.824 852.652 129.308C849.387 91.6944 822.197 63.0794 791.085 63.663C792.444 56.4766 792.847 48.8763 792.168 41.0567C788.783 2.05831 759.693 -27.26 727.207 -24.4402C694.72 -21.6204 671.118 12.2716 674.5 51.2391C675.408 61.7047 678.19 71.4647 682.367 80.0838C664.539 96.2068 654.051 122.817 656.575 151.895C658.814 177.689 670.803 199.829 687.685 213.43C681.655 222.157 678.481 233.703 679.555 246.069C681.539 268.936 697.364 286.539 716.006 287.849C713.554 295.538 712.508 304.061 713.277 312.918C715.913 343.289 738.571 366.123 763.888 363.926C789.205 361.728 807.59 335.331 804.954 304.961Z" fill="white"/>
<path d="M710.255 517.653C712.665 510.694 713.815 503.701 713.874 496.909C734.647 497.659 755.627 482.012 764.053 457.679C767.671 447.231 768.473 436.601 766.888 426.919C791.538 425.011 815.402 405.655 825.425 376.711C837.78 341.034 824.619 303.82 795.972 291.668C800.143 285.66 803.61 278.884 806.178 271.467C818.988 234.477 804.379 195.846 773.566 185.176C742.752 174.505 707.382 195.829 694.583 232.789C691.146 242.716 689.706 252.762 690.006 262.335C667.154 269.789 646.727 289.811 637.176 317.391C628.704 341.857 630.625 366.961 640.494 386.263C631.43 391.773 623.825 401.022 619.763 412.751C612.252 434.44 619.524 456.966 636.013 465.763C630.638 471.784 626.208 479.14 623.299 487.541C613.324 516.347 624.703 546.436 648.716 554.751C672.729 563.067 700.279 546.46 710.255 517.653Z" fill="white"/>
</g>
<defs>
<linearGradient id="paint0_linear_115_2" x1="386" y1="0" x2="386" y2="900" gradientUnits="userSpaceOnUse">
<stop stop-color="#353877"/>
<stop offset="0.971154" stop-color="#6F6992"/>
</linearGradient>
<clipPath id="clip0_115_2">
<rect width="772" height="900" fill="white"/>
</clipPath>
</defs>
</svg>
