<svg width="12" height="12" viewBox="0 0 12 12" fill="none" xmlns="http://www.w3.org/2000/svg">
<path fill-rule="evenodd" clip-rule="evenodd" d="M0.5 6C0.5 4.54131 1.07946 3.14236 2.11091 2.11091C3.14236 1.07946 4.54131 0.5 6 0.5C7.45869 0.5 8.85764 1.07946 9.88909 2.11091C10.9205 3.14236 11.5 4.54131 11.5 6C11.5 7.45869 10.9205 8.85764 9.88909 9.88909C8.85764 10.9205 7.45869 11.5 6 11.5C4.54131 11.5 3.14236 10.9205 2.11091 9.88909C1.07946 8.85764 0.5 7.45869 0.5 6ZM5.27714 4.30851C4.69035 4.79112 4.29823 5.46994 4.17337 6.21937L3.7604 8.7016C3.66549 9.27423 4.33177 9.65891 4.77994 9.28994L6.72286 7.69149C7.30965 7.20889 7.70177 6.53006 7.82663 5.78063L8.23897 3.2984C8.33451 2.72577 7.66823 2.34109 7.22006 2.71006L5.27714 4.30851Z" fill="white"/>
<path d="M5.05713 5.99999C5.05713 5.74992 5.15647 5.51011 5.33329 5.33329C5.51011 5.15647 5.74992 5.05713 5.99999 5.05713C6.25005 5.05713 6.48987 5.15647 6.66669 5.33329C6.84351 5.51011 6.94284 5.74992 6.94284 5.99999C6.94284 6.25005 6.84351 6.48987 6.66669 6.66669C6.48987 6.84351 6.25005 6.94284 5.99999 6.94284C5.74992 6.94284 5.51011 6.84351 5.33329 6.66669C5.15647 6.48987 5.05713 6.25005 5.05713 5.99999Z" fill="white"/>
</svg>
