<svg width="12" height="12" viewBox="0 0 12 12" fill="none" xmlns="http://www.w3.org/2000/svg">
<path fill-rule="evenodd" clip-rule="evenodd" d="M5.20036 0.797906C5.42058 0.606007 5.70501 0.5 5.9997 0.5C6.29439 0.5 6.57882 0.606007 6.79904 0.797906L9.16517 2.85911L9.31553 1.97262C9.32849 1.89626 9.35666 1.82315 9.39845 1.75746C9.44023 1.69177 9.49481 1.63479 9.55907 1.58978C9.62332 1.54476 9.696 1.51258 9.77294 1.49509C9.84989 1.4776 9.92959 1.47513 10.0075 1.48782C10.0854 1.50052 10.16 1.52813 10.2271 1.56908C10.2941 1.61002 10.3522 1.66351 10.3982 1.72648C10.4441 1.78945 10.4769 1.86067 10.4948 1.93608C10.5126 2.01148 10.5152 2.08959 10.5022 2.16595L10.2279 3.7845L11.8128 5.16551C11.9259 5.27085 11.9929 5.41516 11.9995 5.56797C12.006 5.72078 11.9518 5.87012 11.8481 5.98443C11.7444 6.09875 11.5994 6.16909 11.4438 6.18059C11.2882 6.1921 11.1341 6.14387 11.0141 6.0461L10.735 5.80326L10.2616 10.4385C10.2319 10.7294 10.0929 10.9992 9.87164 11.1954C9.65034 11.3916 9.36253 11.5001 9.06412 11.5H2.93527C2.63697 11.5 2.34931 11.3914 2.12814 11.1952C1.90696 10.999 1.76805 10.7293 1.73837 10.4385L1.26563 5.80326L0.98595 6.0461C0.865935 6.14387 0.711837 6.1921 0.556209 6.18059C0.400581 6.16909 0.255611 6.09875 0.151923 5.98443C0.0482357 5.87012 -0.0060492 5.72078 0.000536167 5.56797C0.00712153 5.41516 0.0740614 5.27085 0.187215 5.16551L5.20036 0.797906Z" fill="white"/>
</svg>
