<svg width="12" height="12" viewBox="0 0 12 12" fill="none" xmlns="http://www.w3.org/2000/svg">
<path fill-rule="evenodd" clip-rule="evenodd" d="M3.80556 2.94444C3.80556 2.29614 4.06309 1.67438 4.52152 1.21596C4.97994 0.757539 5.60169 0.5 6.25 0.5C6.89831 0.5 7.52006 0.757539 7.97848 1.21596C8.43691 1.67438 8.69444 2.29614 8.69444 2.94444C8.69444 3.59275 8.43691 4.21451 7.97848 4.67293C7.52006 5.13135 6.89831 5.38889 6.25 5.38889C5.60169 5.38889 4.97994 5.13135 4.52152 4.67293C4.06309 4.21451 3.80556 3.59275 3.80556 2.94444ZM3.80556 6.61111C2.99517 6.61111 2.21798 6.93303 1.64495 7.50606C1.07192 8.07909 0.75 8.85628 0.75 9.66667C0.75 10.1529 0.943154 10.6192 1.28697 10.963C1.63079 11.3068 2.0971 11.5 2.58333 11.5H9.91667C10.4029 11.5 10.8692 11.3068 11.213 10.963C11.5568 10.6192 11.75 10.1529 11.75 9.66667C11.75 8.85628 11.4281 8.07909 10.855 7.50606C10.282 6.93303 9.50483 6.61111 8.69444 6.61111H3.80556Z" fill="white"/>
</svg>
