<svg width="11" height="12" viewBox="0 0 11 12" fill="none" xmlns="http://www.w3.org/2000/svg">
<path d="M4.94675 0C4.82619 0 4.71058 0.0486238 4.62533 0.135175C4.54008 0.221726 4.49219 0.339114 4.49219 0.461516V7.39041C4.03763 6.99891 3.46341 6.77959 2.86741 6.76982C2.27141 6.76006 1.69053 6.96047 1.22377 7.33688C0.757013 7.71329 0.433283 8.2424 0.307762 8.83403C0.182241 9.42565 0.2627 10.0432 0.535423 10.5813C0.808146 11.1194 1.25625 11.5449 1.80335 11.7851C2.35046 12.0254 2.96269 12.0655 3.53569 11.8987C4.10869 11.732 4.60698 11.3686 4.94564 10.8706C5.28429 10.3725 5.44233 9.77066 5.39283 9.16755C5.39788 9.13745 5.40072 9.10701 5.40132 9.07648V3.38445H8.58327C9.02531 3.38445 9.44925 3.20616 9.76182 2.88881C10.0744 2.57146 10.25 2.14103 10.25 1.69223C10.25 1.24342 10.0744 0.812995 9.76182 0.495641C9.44925 0.178288 9.02531 0 8.58327 0H4.94675Z" fill="white"/>
</svg>
